HIERARCHY
ROOT Torso
{
	OFFSET 0.000000 0.000000 0.000000
	CHANNELS 6 Xposition Yposition Zposition Zrotation Yrotation Xrotation 
	JOINT LHip
	{
		OFFSET 0.000000 0.000000 0.000000
		CHANNELS 3 Zrotation Yrotation Xrotation
		JOINT LThigh
		{
			OFFSET 0.055000 -0.055000 -0.010000
			CHANNELS 3 Zrotation Yrotation Xrotation
			JOINT LLeg
			{
				OFFSET 0.000000 -0.160000 0.015000
				CHANNELS 3 Zrotation Yrotation Xrotation
				JOINT LFoot
				{
					OFFSET 0.000000 -0.160000 -0.010000
					CHANNELS 3 Zrotation Yrotation Xrotation
					JOINT LToes
					{
						OFFSET 0.000000 0.000000 0.090000
						CHANNELS 3 Zrotation Yrotation Xrotation
						End Site
						{
							OFFSET 0.000000 0.000000 0.000000
						}
					}
				}
			}
		}
	}
	JOINT RHip
	{
		OFFSET 0.000000 0.000000 0.000000
		CHANNELS 3 Zrotation Yrotation Xrotation
		JOINT RThigh
		{
			OFFSET -0.055000 -0.055000 -0.010000
			CHANNELS 3 Zrotation Yrotation Xrotation
			JOINT RLeg
			{
				OFFSET 0.000000 -0.160000 0.015000
				CHANNELS 3 Zrotation Yrotation Xrotation
				JOINT RFoot
				{
					OFFSET 0.000000 -0.160000 -0.010000
					CHANNELS 3 Zrotation Yrotation Xrotation
					JOINT RToes
					{
						OFFSET 0.000000 0.000000 0.090000
						CHANNELS 3 Zrotation Yrotation Xrotation
						End Site
						{
							OFFSET 0.000000 0.000000 0.000000
						}
					}
				}
			}
		}
	}
	JOINT Neck
	{
		OFFSET 0.000000 0.135000 0.000000
		CHANNELS 3 Zrotation Yrotation Xrotation
		JOINT Head
		{
			OFFSET 0.000000 0.075000 0.000000
			CHANNELS 3 Zrotation Yrotation Xrotation
			End Site
			{
				OFFSET 0.000000 0.000000 0.000000
			}
		}
	}
	JOINT LUpperarm
	{
		OFFSET 0.098000 0.150000 0.000000
		CHANNELS 3 Zrotation Yrotation Xrotation
		JOINT LLowerarm
		{
			OFFSET 0.000000 0.009000 0.090000
			CHANNELS 3 Zrotation Yrotation Xrotation
			JOINT LHand
			{
				OFFSET 0.000000 0.000000 0.105000
				CHANNELS 3 Zrotation Yrotation Xrotation
				End Site
				{
					OFFSET 0.000000 0.000000 0.000000
				}
			}
		}
	}
	JOINT RUpperarm
	{
		OFFSET -0.098000 0.150000 0.000000
		CHANNELS 3 Zrotation Yrotation Xrotation
		JOINT RLowerarm
		{
			OFFSET 0.000000 0.009000 0.090000
			CHANNELS 3 Zrotation Yrotation Xrotation
			JOINT RHand
			{
				OFFSET 0.000000 0.000000 0.105000
				CHANNELS 3 Zrotation Yrotation Xrotation
				End Site
				{
					OFFSET 0.000000 0.000000 0.000000
				}
			}
		}
	}
}
MOTION
Frames: 11
Frame Time: 0.040000
0.000000 0.000000 0.000000 -1.039891 -0.425701 -4.946505 0.787637 -4.947467 -2.919474 14.213960 1.340627 6.886233 5.903001 0.688513 5.557074 -0.193838 1.270352 12.185155 0.000000 0.000000 0.000000 2.401487 5.155536 -3.343291 -15.267982 -1.187320 7.259119 -5.918077 -0.613175 5.382062 0.229664 -1.218795 14.640348 0.000000 0.000000 0.000000 -0.143348 -0.000576 3.776958 0.000000 0.000000 0.000000 175.566642 88.805400 -175.565315 0.007648 0.109936 -1.181979 0.000000 0.000000 0.000000 -174.748486 -88.994990 -174.745885 0.013518 1.036461 -0.738394 0.000000 0.000000 0.000000 
0.000000 0.000000 0.000000 -1.042094 -0.456915 -4.955110 0.790478 -4.932673 -2.904760 14.214584 1.343929 6.889710 5.903169 0.694295 5.553041 -0.194051 1.276310 12.183143 0.000000 0.000000 0.000000 2.406280 5.165116 -3.344826 -15.267808 -1.180464 7.260974 -5.918039 -0.605879 5.384266 0.229346 -1.211517 14.641040 0.000000 0.000000 0.000000 -0.144363 -0.000647 3.792663 0.000000 0.000000 0.000000 175.570124 88.760789 -175.568737 0.008638 0.120769 -1.183024 0.000000 0.000000 0.000000 -174.693900 -88.805436 -174.689577 0.053101 4.855158 -0.657516 0.000000 0.000000 0.000000 
0.000000 0.000000 0.000000 -1.043587 -0.488908 -4.963186 0.792638 -4.917769 -2.890141 14.215165 1.347285 6.893094 5.903521 0.700243 5.548920 -0.194234 1.282474 12.181224 0.000000 0.000000 0.000000 2.410332 5.175051 -3.346830 -15.267683 -1.173609 7.262548 -5.917822 -0.598447 5.386480 0.229058 -1.204063 14.641661 0.000000 0.000000 0.000000 -0.147254 -0.000675 3.808040 0.000000 0.000000 0.000000 175.572955 88.714639 -175.571507 0.009650 0.132011 -1.184249 0.000000 0.000000 0.000000 -174.631733 -88.614216 -174.625456 0.080095 8.675367 -0.568186 0.000000 0.000000 0.000000 
0.000000 0.000000 0.000000 -1.043913 -0.564070 -4.978992 0.794745 -4.883908 -2.857822 14.216184 1.355100 6.900304 5.904986 0.714265 5.539368 -0.194528 1.297124 12.177297 0.000000 0.000000 0.000000 2.416400 5.198873 -3.353397 -15.267701 -1.158251 7.264870 -5.916676 -0.581256 5.391495 0.228535 -1.186673 14.642797 0.000000 0.000000 0.000000 -0.160981 -0.000559 3.840802 0.000000 0.000000 0.000000 175.576636 88.604485 -175.575049 0.012018 0.158979 -1.187617 0.000000 0.000000 0.000000 -174.467575 -88.176938 -174.456781 0.086001 17.275685 -0.336381 0.000000 0.000000 0.000000 
0.000000 0.000000 0.000000 -1.039095 -0.644119 -4.990953 0.792433 -4.849705 -2.826631 14.216500 1.363380 6.906903 5.907372 0.729207 5.529519 -0.194635 1.312881 12.174005 0.000000 0.000000 0.000000 2.417525 5.224955 -3.363297 -15.268398 -1.143102 7.265226 -5.914614 -0.563469 5.396568 0.228213 -1.168477 14.643557 0.000000 0.000000 0.000000 -0.185455 -0.000158 3.870001 0.000000 0.000000 0.000000 175.575930 88.484613 -175.574205 0.014517 0.188523 -1.191732 0.000000 0.000000 0.000000 -174.277092 -87.728494 -174.263100 0.002768 25.881353 -0.061595 0.000000 0.000000 0.000000 
0.000000 0.000000 0.000000 -1.017998 -0.779401 -5.001233 0.777780 -4.796058 -2.780889 14.214475 1.377368 6.916129 5.912835 0.754274 5.513966 -0.194369 1.339558 12.170450 0.000000 0.000000 0.000000 2.406950 5.270304 -3.386086 -15.271810 -1.120271 7.261389 -5.909611 -0.534809 5.404612 0.228200 -1.138762 14.643894 0.000000 0.000000 0.000000 -0.247369 0.001171 3.906099 0.000000 0.000000 0.000000 175.563723 88.277153 -175.561794 0.018661 0.240139 -1.199197 0.000000 0.000000 0.000000 -173.953032 -87.006274 -173.941523 -0.330180 39.274770 0.454305 0.000000 0.000000 0.000000 
0.000000 0.000000 0.000000 -0.989510 -0.884559 -5.002825 0.756795 -4.757484 -2.750249 14.210035 1.388204 6.922417 5.917923 0.773425 5.503033 -0.193805 1.360086 12.169325 0.000000 0.000000 0.000000 2.387868 5.306101 -3.407816 -15.276966 -1.104720 7.255313 -5.904758 -0.513777 5.410502 0.228627 -1.116673 14.643365 0.000000 0.000000 0.000000 -0.311572 0.002770 3.924055 0.000000 0.000000 0.000000 175.544412 88.113178 -175.542357 0.021792 0.281455 -1.204855 0.000000 0.000000 0.000000 -173.721829 -86.472642 -173.721465 -0.727632 48.844714 0.893093 0.000000 0.000000 0.000000 
0.000000 0.000000 0.000000 -0.946290 -0.996906 -5.000887 0.724533 -4.718705 -2.720885 14.201860 1.399625 6.929141 5.923827 0.793393 5.492610 -0.192882 1.381588 12.169602 0.000000 0.000000 0.000000 2.356720 5.344215 -3.433437 -15.285501 -1.089944 7.246655 -5.898949 -0.492470 5.416499 0.229487 -1.094077 14.642011 0.000000 0.000000 0.000000 -0.394582 0.005037 3.935615 0.000000 0.000000 0.000000 175.513786 87.937158 -175.511632 0.025017 0.326488 -1.210215 0.000000 0.000000 0.000000 -173.509699 -85.928207 -173.531179 -1.252872 58.417724 1.396075 0.000000 0.000000 0.000000 
0.000000 0.000000 0.000000 -0.884413 -1.115953 -4.997212 0.678200 -4.679779 -2.692185 14.188555 1.411367 6.937095 5.930302 0.813825 5.483061 -0.191563 1.403674 12.171487 0.000000 0.000000 0.000000 2.310861 5.383773 -3.461821 -15.298708 -1.076050 7.235780 -5.892369 -0.471131 5.422517 0.230838 -1.071256 14.639599 0.000000 0.000000 0.000000 -0.498482 0.008097 3.941760 0.000000 0.000000 0.000000 175.469127 87.751543 -175.466914 0.028260 0.374999 -1.214577 0.000000 0.000000 0.000000 -173.333390 -85.381213 -173.389049 -1.889082 67.997130 1.969782 0.000000 0.000000 0.000000 
0.000000 0.000000 0.000000 -0.799193 -1.240279 -4.994042 0.614472 -4.640974 -2.663501 14.168412 1.422975 6.947130 5.936971 0.834173 5.474773 -0.189819 1.425742 12.175198 0.000000 0.000000 0.000000 2.247187 5.423441 -3.491329 -15.318219 -1.063172 7.223186 -5.885333 -0.450129 5.428349 0.232729 -1.048639 14.635824 0.000000 0.000000 0.000000 -0.625352 0.012091 3.944257 0.000000 0.000000 0.000000 175.407253 87.560695 -175.405035 0.031402 0.426362 -1.217024 0.000000 0.000000 0.000000 -173.209461 -84.846090 -173.311742 -2.606746 77.590517 2.621531 0.000000 0.000000 0.000000 
0.000000 0.000000 0.000000 -0.710665 -1.341592 -4.993557 0.548468 -4.610460 -2.640253 14.146044 1.431709 6.957181 5.942086 0.849853 5.469325 -0.188111 1.442793 12.179627 0.000000 0.000000 0.000000 2.181111 5.453986 -3.514294 -15.339675 -1.053744 7.212294 -5.879704 -0.433947 5.432642 0.234647 -1.031131 14.631579 0.000000 0.000000 0.000000 -0.744571 0.016054 3.945268 0.000000 0.000000 0.000000 175.343027 87.408895 -175.340850 0.033729 0.468674 -1.216843 0.000000 0.000000 0.000000 -173.159018 -84.441522 -173.306151 -3.210191 85.284385 3.203604 0.000000 0.000000 0.000000 
